<svg xmlns="http://www.w3.org/2000/svg" viewBox="0 0 100 100" fill="none">
  <!-- Background circle -->
  <circle cx="50" cy="50" r="50" fill="url(#bgGradient)"/>
  
  <!-- Robot head -->
  <rect x="22" y="20" width="56" height="45" rx="10" fill="#1E3A5F"/>
  <rect x="25" y="23" width="50" height="39" rx="8" fill="#2563EB"/>
  
  <!-- Eyes -->
  <circle cx="38" cy="40" r="8" fill="#1E3A5F"/>
  <circle cx="62" cy="40" r="8" fill="#1E3A5F"/>
  <circle cx="38" cy="40" r="5" fill="#60A5FA"/>
  <circle cx="62" cy="40" r="5" fill="#60A5FA"/>
  <circle cx="40" cy="38" r="2" fill="white"/>
  <circle cx="64" cy="38" r="2" fill="white"/>
  
  <!-- Antenna -->
  <rect x="47" y="10" width="6" height="12" rx="3" fill="#1E3A5F"/>
  <circle cx="50" cy="8" r="5" fill="#60A5FA"/>
  
  <!-- Mouth/Display -->
  <rect x="32" y="52" width="36" height="6" rx="3" fill="#1E3A5F"/>
  <rect x="34" y="53" width="8" height="4" rx="2" fill="#34D399"/>
  <rect x="44" y="53" width="8" height="4" rx="2" fill="#34D399"/>
  <rect x="54" y="53" width="8" height="4" rx="2" fill="#34D399"/>
  
  <!-- Body -->
  <rect x="30" y="68" width="40" height="22" rx="6" fill="#1E3A5F"/>
  <rect x="33" y="71" width="34" height="16" rx="4" fill="#2563EB"/>
  
  <!-- Body details -->
  <circle cx="42" cy="79" r="4" fill="#60A5FA"/>
  <circle cx="58" cy="79" r="4" fill="#60A5FA"/>
  
  <!-- Arms -->
  <rect x="14" y="70" width="12" height="18" rx="4" fill="#1E3A5F"/>
  <rect x="74" y="70" width="12" height="18" rx="4" fill="#1E3A5F"/>
  
  <defs>
    <linearGradient id="bgGradient" x1="0" y1="0" x2="100" y2="100">
      <stop offset="0%" stop-color="#3B82F6"/>
      <stop offset="100%" stop-color="#8B5CF6"/>
    </linearGradient>
  </defs>
</svg>
